<svg preserveAspectRatio="xMidYMid meet" zoomAndPan="magnify" viewBox="0 0 375 131.999998" xmlns="http://www.w3.org/2000/svg" xmlns:xlink="http://www.w3.org/1999/xlink" height="176" width="500" version="1.0">
 <defs>
  <g/>
  <clipPath id="463149f332">
   <path clip-rule="nonzero" d="M 8 24.226562 L 367 24.226562 L 367 107.476562 L 8 107.476562 Z M 8 24.226562 "/>
  </clipPath>
  <clipPath id="cbe5201110">
   <path clip-rule="nonzero" d="M 324.90625 107.46875 L 50.320312 107.46875 C 27.234375 107.46875 8.519531 88.832031 8.519531 65.851562 C 8.519531 42.859375 27.234375 24.226562 50.320312 24.226562 L 324.914062 24.226562 C 348.003906 24.226562 366.714844 42.859375 366.714844 65.851562 C 366.710938 88.832031 347.996094 107.46875 324.90625 107.46875 Z M 324.90625 107.46875 "/>
  </clipPath>
  <clipPath id="7fd7c0c006">
   <path clip-rule="nonzero" d="M 13.199219 25.4375 L 361.949219 25.4375 L 361.949219 106.4375 L 13.199219 106.4375 Z M 13.199219 25.4375 "/>
  </clipPath>
  <clipPath id="a6d92cdeb8">
   <path clip-rule="nonzero" d="M 320.832031 106.429688 L 54.292969 106.429688 C 31.882812 106.429688 13.71875 88.296875 13.71875 65.9375 C 13.71875 43.566406 31.882812 25.4375 54.292969 25.4375 L 320.839844 25.4375 C 343.25 25.4375 361.417969 43.566406 361.417969 65.9375 C 361.410156 88.296875 343.242188 106.429688 320.832031 106.429688 Z M 320.832031 106.429688 "/>
  </clipPath>
 </defs>
 <g clip-path="url(#463149f332)">
  <g clip-path="url(#cbe5201110)">
   <path fill="#ff914d" fill-rule="nonzero" fill-opacity="1" d="M 8.519531 24.226562 L 8.519531 107.46875 L 366.714844 107.46875 L 366.714844 24.226562 Z M 8.519531 24.226562 "/>
  </g>
 </g>
 <g clip-path="url(#7fd7c0c006)">
  <g clip-path="url(#a6d92cdeb8)">
   <path fill="#5d3189" fill-rule="nonzero" fill-opacity="1" d="M 13.71875 25.4375 L 13.71875 106.429688 L 361.417969 106.429688 L 361.417969 25.4375 Z M 13.71875 25.4375 "/>
  </g>
 </g>
 <g fill="#ffffff" fill-opacity="1">
  <g transform="translate(28.061655, 78.430595)">
   <g>
    <path d="M 23.03125 -18.03125 C 23.03125 -15.59375 22.234375 -13.648438 20.640625 -12.203125 C 19.046875 -10.765625 16.882812 -10.046875 14.15625 -10.046875 L 6.578125 -10.046875 L 6.578125 0 L 3.078125 0 L 3.078125 -25.796875 L 13.9375 -25.796875 C 16.832031 -25.796875 19.070312 -25.117188 20.65625 -23.765625 C 22.238281 -22.410156 23.03125 -20.5 23.03125 -18.03125 Z M 19.515625 -18 C 19.515625 -21.332031 17.515625 -23 13.515625 -23 L 6.578125 -23 L 6.578125 -12.8125 L 13.65625 -12.8125 C 17.5625 -12.8125 19.515625 -14.539062 19.515625 -18 Z M 19.515625 -18 "/>
   </g>
  </g>
  <g transform="translate(53.07794, 78.430595)">
   <g>
    <path d="M 3.078125 0 L 3.078125 -25.796875 L 22.65625 -25.796875 L 22.65625 -22.9375 L 6.578125 -22.9375 L 6.578125 -14.671875 L 21.546875 -14.671875 L 21.546875 -11.84375 L 6.578125 -11.84375 L 6.578125 -2.859375 L 23.40625 -2.859375 L 23.40625 0 Z M 3.078125 0 "/>
   </g>
  </g>
  <g transform="translate(78.094225, 78.430595)">
   <g>
    <path d="M 25.28125 -13.171875 C 25.28125 -10.503906 24.757812 -8.171875 23.71875 -6.171875 C 22.6875 -4.179688 21.21875 -2.65625 19.3125 -1.59375 C 17.414062 -0.53125 15.21875 0 12.71875 0 L 3.078125 0 L 3.078125 -25.796875 L 11.609375 -25.796875 C 15.984375 -25.796875 19.351562 -24.695312 21.71875 -22.5 C 24.09375 -20.3125 25.28125 -17.203125 25.28125 -13.171875 Z M 21.765625 -13.171875 C 21.765625 -16.367188 20.890625 -18.804688 19.140625 -20.484375 C 17.390625 -22.160156 14.851562 -23 11.53125 -23 L 6.578125 -23 L 6.578125 -2.796875 L 12.328125 -2.796875 C 14.210938 -2.796875 15.875 -3.210938 17.3125 -4.046875 C 18.75 -4.878906 19.847656 -6.078125 20.609375 -7.640625 C 21.378906 -9.203125 21.765625 -11.046875 21.765625 -13.171875 Z M 21.765625 -13.171875 "/>
   </g>
  </g>
  <g transform="translate(105.179938, 78.430595)">
   <g>
    <path d="M 3.453125 0 L 3.453125 -25.796875 L 6.953125 -25.796875 L 6.953125 0 Z M 3.453125 0 "/>
   </g>
  </g>
  <g transform="translate(115.600338, 78.430595)">
   <g>
    <path d="M 25.28125 -13.171875 C 25.28125 -10.503906 24.757812 -8.171875 23.71875 -6.171875 C 22.6875 -4.179688 21.21875 -2.65625 19.3125 -1.59375 C 17.414062 -0.53125 15.21875 0 12.71875 0 L 3.078125 0 L 3.078125 -25.796875 L 11.609375 -25.796875 C 15.984375 -25.796875 19.351562 -24.695312 21.71875 -22.5 C 24.09375 -20.3125 25.28125 -17.203125 25.28125 -13.171875 Z M 21.765625 -13.171875 C 21.765625 -16.367188 20.890625 -18.804688 19.140625 -20.484375 C 17.390625 -22.160156 14.851562 -23 11.53125 -23 L 6.578125 -23 L 6.578125 -2.796875 L 12.328125 -2.796875 C 14.210938 -2.796875 15.875 -3.210938 17.3125 -4.046875 C 18.75 -4.878906 19.847656 -6.078125 20.609375 -7.640625 C 21.378906 -9.203125 21.765625 -11.046875 21.765625 -13.171875 Z M 21.765625 -13.171875 "/>
   </g>
  </g>
  <g transform="translate(142.686052, 78.430595)">
   <g>
    <path d="M 27.375 -13.015625 C 27.375 -10.316406 26.859375 -7.953125 25.828125 -5.921875 C 24.796875 -3.898438 23.316406 -2.347656 21.390625 -1.265625 C 19.460938 -0.179688 17.1875 0.359375 14.5625 0.359375 C 11.90625 0.359375 9.613281 -0.175781 7.6875 -1.25 C 5.769531 -2.320312 4.304688 -3.875 3.296875 -5.90625 C 2.285156 -7.9375 1.78125 -10.304688 1.78125 -13.015625 C 1.78125 -17.140625 2.90625 -20.363281 5.15625 -22.6875 C 7.414062 -25.019531 10.5625 -26.1875 14.59375 -26.1875 C 17.21875 -26.1875 19.492188 -25.660156 21.421875 -24.609375 C 23.347656 -23.566406 24.820312 -22.050781 25.84375 -20.0625 C 26.863281 -18.070312 27.375 -15.722656 27.375 -13.015625 Z M 23.796875 -13.015625 C 23.796875 -16.222656 22.992188 -18.742188 21.390625 -20.578125 C 19.785156 -22.410156 17.519531 -23.328125 14.59375 -23.328125 C 11.632812 -23.328125 9.347656 -22.421875 7.734375 -20.609375 C 6.128906 -18.804688 5.328125 -16.273438 5.328125 -13.015625 C 5.328125 -9.785156 6.140625 -7.21875 7.765625 -5.3125 C 9.398438 -3.414062 11.664062 -2.46875 14.5625 -2.46875 C 17.539062 -2.46875 19.820312 -3.382812 21.40625 -5.21875 C 23 -7.0625 23.796875 -9.660156 23.796875 -13.015625 Z M 23.796875 -13.015625 "/>
   </g>
  </g>
  <g transform="translate(171.859508, 78.430595)">
   <g>
    <path d="M 23.296875 -7.125 C 23.296875 -4.738281 22.363281 -2.894531 20.5 -1.59375 C 18.632812 -0.289062 16.015625 0.359375 12.640625 0.359375 C 6.347656 0.359375 2.703125 -1.820312 1.703125 -6.1875 L 5.09375 -6.859375 C 5.476562 -5.316406 6.304688 -4.179688 7.578125 -3.453125 C 8.847656 -2.722656 10.578125 -2.359375 12.765625 -2.359375 C 15.023438 -2.359375 16.765625 -2.742188 17.984375 -3.515625 C 19.210938 -4.296875 19.828125 -5.4375 19.828125 -6.9375 C 19.828125 -7.78125 19.632812 -8.460938 19.25 -8.984375 C 18.863281 -9.515625 18.320312 -9.945312 17.625 -10.28125 C 16.9375 -10.625 16.109375 -10.910156 15.140625 -11.140625 C 14.179688 -11.378906 13.113281 -11.632812 11.9375 -11.90625 C 9.894531 -12.351562 8.347656 -12.800781 7.296875 -13.25 C 6.242188 -13.707031 5.410156 -14.210938 4.796875 -14.765625 C 4.179688 -15.316406 3.710938 -15.960938 3.390625 -16.703125 C 3.066406 -17.453125 2.90625 -18.3125 2.90625 -19.28125 C 2.90625 -21.488281 3.75 -23.191406 5.4375 -24.390625 C 7.132812 -25.585938 9.554688 -26.1875 12.703125 -26.1875 C 15.640625 -26.1875 17.878906 -25.738281 19.421875 -24.84375 C 20.972656 -23.945312 22.0625 -22.414062 22.6875 -20.25 L 19.25 -19.640625 C 18.863281 -21.015625 18.140625 -22.007812 17.078125 -22.625 C 16.015625 -23.238281 14.546875 -23.546875 12.671875 -23.546875 C 10.609375 -23.546875 9.03125 -23.203125 7.9375 -22.515625 C 6.851562 -21.835938 6.3125 -20.820312 6.3125 -19.46875 C 6.3125 -18.675781 6.519531 -18.019531 6.9375 -17.5 C 7.363281 -16.976562 7.972656 -16.535156 8.765625 -16.171875 C 9.566406 -15.816406 11.148438 -15.375 13.515625 -14.84375 C 14.304688 -14.664062 15.09375 -14.476562 15.875 -14.28125 C 16.664062 -14.09375 17.421875 -13.867188 18.140625 -13.609375 C 18.859375 -13.347656 19.53125 -13.039062 20.15625 -12.6875 C 20.789062 -12.332031 21.335938 -11.898438 21.796875 -11.390625 C 22.265625 -10.878906 22.628906 -10.273438 22.890625 -9.578125 C 23.160156 -8.878906 23.296875 -8.0625 23.296875 -7.125 Z M 23.296875 -7.125 "/>
   </g>
  </g>
  <g transform="translate(196.875793, 78.430595)">
   <g/>
  </g>
  <g transform="translate(207.296192, 78.430595)">
   <g>
    <path d="M 27.375 -13.015625 C 27.375 -10.316406 26.859375 -7.953125 25.828125 -5.921875 C 24.796875 -3.898438 23.316406 -2.347656 21.390625 -1.265625 C 19.460938 -0.179688 17.1875 0.359375 14.5625 0.359375 C 11.90625 0.359375 9.613281 -0.175781 7.6875 -1.25 C 5.769531 -2.320312 4.304688 -3.875 3.296875 -5.90625 C 2.285156 -7.9375 1.78125 -10.304688 1.78125 -13.015625 C 1.78125 -17.140625 2.90625 -20.363281 5.15625 -22.6875 C 7.414062 -25.019531 10.5625 -26.1875 14.59375 -26.1875 C 17.21875 -26.1875 19.492188 -25.660156 21.421875 -24.609375 C 23.347656 -23.566406 24.820312 -22.050781 25.84375 -20.0625 C 26.863281 -18.070312 27.375 -15.722656 27.375 -13.015625 Z M 23.796875 -13.015625 C 23.796875 -16.222656 22.992188 -18.742188 21.390625 -20.578125 C 19.785156 -22.410156 17.519531 -23.328125 14.59375 -23.328125 C 11.632812 -23.328125 9.347656 -22.421875 7.734375 -20.609375 C 6.128906 -18.804688 5.328125 -16.273438 5.328125 -13.015625 C 5.328125 -9.785156 6.140625 -7.21875 7.765625 -5.3125 C 9.398438 -3.414062 11.664062 -2.46875 14.5625 -2.46875 C 17.539062 -2.46875 19.820312 -3.382812 21.40625 -5.21875 C 23 -7.0625 23.796875 -9.660156 23.796875 -13.015625 Z M 23.796875 -13.015625 "/>
   </g>
  </g>
  <g transform="translate(236.469649, 78.430595)">
   <g>
    <path d="M 19.8125 0 L 6 -21.96875 L 6.09375 -20.203125 L 6.1875 -17.140625 L 6.1875 0 L 3.078125 0 L 3.078125 -25.796875 L 7.140625 -25.796875 L 21.09375 -3.6875 C 20.945312 -6.070312 20.875 -7.800781 20.875 -8.875 L 20.875 -25.796875 L 24.03125 -25.796875 L 24.03125 0 Z M 19.8125 0 "/>
   </g>
  </g>
  <g transform="translate(263.555362, 78.430595)">
   <g>
    <path d="M 3.078125 0 L 3.078125 -25.796875 L 6.578125 -25.796875 L 6.578125 -2.859375 L 19.609375 -2.859375 L 19.609375 0 Z M 3.078125 0 "/>
   </g>
  </g>
  <g transform="translate(284.414475, 78.430595)">
   <g>
    <path d="M 3.453125 0 L 3.453125 -25.796875 L 6.953125 -25.796875 L 6.953125 0 Z M 3.453125 0 "/>
   </g>
  </g>
  <g transform="translate(294.834875, 78.430595)">
   <g>
    <path d="M 19.8125 0 L 6 -21.96875 L 6.09375 -20.203125 L 6.1875 -17.140625 L 6.1875 0 L 3.078125 0 L 3.078125 -25.796875 L 7.140625 -25.796875 L 21.09375 -3.6875 C 20.945312 -6.070312 20.875 -7.800781 20.875 -8.875 L 20.875 -25.796875 L 24.03125 -25.796875 L 24.03125 0 Z M 19.8125 0 "/>
   </g>
  </g>
  <g transform="translate(321.920588, 78.430595)">
   <g>
    <path d="M 3.078125 0 L 3.078125 -25.796875 L 22.65625 -25.796875 L 22.65625 -22.9375 L 6.578125 -22.9375 L 6.578125 -14.671875 L 21.546875 -14.671875 L 21.546875 -11.84375 L 6.578125 -11.84375 L 6.578125 -2.859375 L 23.40625 -2.859375 L 23.40625 0 Z M 3.078125 0 "/>
   </g>
  </g>
 </g>
</svg>
